<svg xmlns="http://www.w3.org/2000/svg" viewBox="0 0 24 24" width="100" height="100" fill="#ffd333">
  <path d="M22 5.7l-1.9-4.6c-.2-.4-.6-.7-1-.7h-12c-.4 0-.8.3-1 .7l-1.9 4.6h-.1c-.4.9-.7 1.9-.7 2.9v1.1l-2.7 5.7c-.1.2-.1.5 0 .7s.2.4.4.5l1.5.8c.1.1.3.2.5.2h16c.2 0 .4-.1.5-.2l1.5-.8c.2-.1.4-.3.4-.5s0-.5-.1-.7l-2.7-5.7v-1.1c0-1-.3-2-.7-2.9h-.1zm-17 7.5c.4-.6.7-1.3.7-2s-.3-1.4-.7-2h16.1c-.4.6-.7 1.3-.7 2s.3 1.4.7 2h-16.1zm17.7 6l-1.2 2.4h-13.3l-1.2-2.4h15.7z"/>
  <circle cx="9" cy="19" r="1"/>
  <circle cx="17" cy="19" r="1"/>
</svg>
